HIERARCHY
ROOT Hips
{
	OFFSET 0.000000 0.000000 0.000000
	CHANNELS 6 Xposition Yposition Zposition Zrotation Yrotation Xrotation 
	JOINT LHipJoint
	{
		OFFSET 0.000000 0.000000 0.000000
		CHANNELS 3 Zrotation Yrotation Xrotation
		JOINT LeftUpLeg
		{
			OFFSET 1.363060 -1.794630 0.839290
			CHANNELS 3 Zrotation Yrotation Xrotation
			JOINT LeftLeg
			{
				OFFSET 2.448110 -6.726130 0.000000
				CHANNELS 3 Zrotation Yrotation Xrotation
				JOINT LeftFoot
				{
					OFFSET 2.562200 -7.039590 0.000000
					CHANNELS 3 Zrotation Yrotation Xrotation
					JOINT LeftToeBase
					{
						OFFSET 0.157640 -0.433110 2.322550
						CHANNELS 3 Zrotation Yrotation Xrotation
						End Site
						{
							OFFSET 0.000000 0.000000 0.000000
						}
					}
				}
			}
		}
	}
	JOINT RHipJoint
	{
		OFFSET 0.000000 0.000000 0.000000
		CHANNELS 3 Zrotation Yrotation Xrotation
		JOINT RightUpLeg
		{
			OFFSET -1.305520 -1.794630 0.839290
			CHANNELS 3 Zrotation Yrotation Xrotation
			JOINT RightLeg
			{
				OFFSET -2.542530 -6.985550 0.000000
				CHANNELS 3 Zrotation Yrotation Xrotation
				JOINT RightFoot
				{
					OFFSET -2.568260 -7.056230 0.000000
					CHANNELS 3 Zrotation Yrotation Xrotation
					JOINT RightToeBase
					{
						OFFSET -0.164730 -0.452590 2.363150
						CHANNELS 3 Zrotation Yrotation Xrotation
						End Site
						{
							OFFSET 0.000000 0.000000 0.000000
						}
					}
				}
			}
		}
	}
	JOINT LowerBack
	{
		OFFSET 0.000000 0.000000 0.000000
		CHANNELS 3 Zrotation Yrotation Xrotation
		JOINT Spine
		{
			OFFSET 0.028270 2.035590 -0.193380
			CHANNELS 3 Zrotation Yrotation Xrotation
			JOINT Spine1
			{
				OFFSET 0.056720 2.048850 -0.042750
				CHANNELS 3 Zrotation Yrotation Xrotation
				JOINT Neck
				{
					OFFSET 0.000000 0.000000 0.000000
					CHANNELS 3 Zrotation Yrotation Xrotation
					JOINT Neck1
					{
						OFFSET -0.054170 1.746240 0.172020
						CHANNELS 3 Zrotation Yrotation Xrotation
						JOINT Head
						{
							OFFSET 0.104070 1.761360 -0.123970
							CHANNELS 3 Zrotation Yrotation Xrotation
							End Site
							{
								OFFSET 0.000000 0.000000 0.000000
							}
						}
					}
				}
				JOINT LeftShoulder
				{
					OFFSET 0.000000 0.000000 0.000000
					CHANNELS 3 Zrotation Yrotation Xrotation
					JOINT LeftArm
					{
						OFFSET 3.362410 1.200890 -0.311210
						CHANNELS 3 Zrotation Yrotation Xrotation
						JOINT LeftForeArm
						{
							OFFSET 4.983000 -0.000000 -0.000000
							CHANNELS 3 Zrotation Yrotation Xrotation
							JOINT LeftHand
							{
								OFFSET 3.483560 -0.000000 -0.000000
								CHANNELS 3 Zrotation Yrotation Xrotation
								JOINT LeftFingerBase
								{
									OFFSET 0.000000 0.000000 0.000000
									CHANNELS 3 Zrotation Yrotation Xrotation
									JOINT LeftHandIndex1
									{
										OFFSET 0.715260 -0.000000 -0.000000
										CHANNELS 3 Zrotation Yrotation Xrotation
										End Site
										{
											OFFSET 0.000000 0.000000 0.000000
										}
									}
								}
								JOINT LThumb
								{
									OFFSET 0.000000 0.000000 0.000000
									CHANNELS 3 Zrotation Yrotation Xrotation
									End Site
									{
										OFFSET 0.000000 0.000000 0.000000
									}
								}
							}
						}
					}
				}
				JOINT RightShoulder
				{
					OFFSET 0.000000 0.000000 0.000000
					CHANNELS 3 Zrotation Yrotation Xrotation
					JOINT RightArm
					{
						OFFSET -3.136600 1.374050 -0.404650
						CHANNELS 3 Zrotation Yrotation Xrotation
						JOINT RightForeArm
						{
							OFFSET -5.241900 -0.000000 -0.000000
							CHANNELS 3 Zrotation Yrotation Xrotation
							JOINT RightHand
							{
								OFFSET -3.444170 -0.000000 -0.000000
								CHANNELS 3 Zrotation Yrotation Xrotation
								JOINT RightFingerBase
								{
									OFFSET 0.000000 0.000000 0.000000
									CHANNELS 3 Zrotation Yrotation Xrotation
									JOINT RightHandIndex1
									{
										OFFSET -0.622530 -0.000000 -0.000000
										CHANNELS 3 Zrotation Yrotation Xrotation
										End Site
										{
											OFFSET 0.000000 0.000000 0.000000
										}
									}
								}
								JOINT RThumb
								{
									OFFSET 0.000000 0.000000 0.000000
									CHANNELS 3 Zrotation Yrotation Xrotation
									End Site
									{
										OFFSET 0.000000 0.000000 0.000000
									}
								}
							}
						}
					}
				}
			}
		}
	}
}
MOTION
Frames: 9
Frame Time: 0.008333
1.291693 16.285889 -1.041580 -3.143769 8.651611 9.186624 6.412880 1.149284 0.498001 -17.264118 -12.571875 -38.348224 8.144366 19.053656 57.158850 2.304033 -12.581837 -7.665356 0.008100 -0.582500 -1.600800 -6.270966 -1.580046 0.581636 18.388872 2.523440 -34.866952 -8.173034 -17.353576 54.621912 -0.987786 -0.222135 -16.566607 -1.435900 7.576100 -21.433800 -4.705909 2.791200 25.802462 -2.594520 1.546056 0.856676 -2.359715 1.333346 -17.929459 -14.030127 -1.034148 -10.088362 18.163293 1.517905 -4.056815 9.301500 1.267200 0.472800 -7.235068 -1.952620 2.796627 -26.023914 28.304282 64.766826 145.258496 -42.316429 -107.213415 -3.882066 -2.475406 -83.205620 -32.581341 40.098734 -19.062100 -7.125000 0.000000 0.000000 -66.644300 55.430900 -24.720200 6.590444 3.531345 2.390919 47.368846 -48.644077 51.524557 -149.267609 37.087118 -109.122078 1.710004 2.006086 -41.942091 41.785916 9.471561 7.583600 7.125000 0.000000 0.000000 39.967900 -15.331100 39.613400 
1.299252 16.282443 -1.044804 -3.195675 8.632032 9.378407 6.424099 1.136805 0.493621 -17.171140 -12.561847 -38.654846 8.181129 19.099453 57.276521 2.309741 -12.703223 -7.628238 0.004500 -0.434200 -1.193100 -6.281476 -1.581198 0.589120 18.407360 2.456903 -35.180256 -8.189669 -17.376252 54.678306 -1.011118 -0.054201 -16.510722 -1.442700 7.593400 -21.485900 -4.778150 2.792429 26.011787 -2.545207 1.489033 0.609851 -2.284831 1.324897 -18.384988 -13.467788 -1.082591 -10.847708 17.727389 1.320040 -3.268164 9.048700 1.191800 0.893500 -7.241171 -1.950802 2.788724 -26.550073 28.714806 64.799197 145.297351 -42.311363 -107.223548 -3.888462 -2.487802 -83.267815 -32.756616 40.113214 -19.186500 -7.125000 0.000000 0.000000 -66.782200 55.401300 -24.759500 6.593980 3.521321 2.373844 47.602186 -48.552536 51.590355 -149.214000 37.140517 -109.075779 1.725624 2.004464 -42.057492 42.169289 9.314666 7.574800 7.125000 0.000000 0.000000 40.101900 -15.272000 39.970900 
1.306477 16.276218 -1.046805 -3.215945 8.667054 9.529081 6.434092 1.125629 0.495077 -17.116902 -12.628318 -38.899619 8.210171 19.140016 57.375575 2.308279 -12.793490 -7.557659 0.001700 -0.263100 -0.722800 -6.289378 -1.584271 0.594066 18.402577 2.339547 -35.444380 -8.207993 -17.394552 54.737981 -1.028310 0.064977 -16.478078 -1.431900 7.566100 -21.403600 -4.810395 2.758081 26.277777 -2.525456 1.389317 0.337822 -2.250716 1.295120 -18.901446 -12.963994 -1.139202 -11.877415 17.349661 1.076992 -2.068609 8.838500 1.105800 1.494400 -7.242300 -1.966678 2.779829 -26.967819 28.989697 64.816292 145.216319 -42.385053 -107.152945 -3.883343 -2.519971 -83.453128 -32.998721 40.003619 -19.304300 -7.125000 0.000000 0.000000 -66.821700 55.296100 -24.593700 6.596400 3.512813 2.356956 47.773647 -48.426023 51.761597 -149.169192 37.188322 -109.034064 1.740752 2.006939 -42.252088 42.590836 9.143183 7.562300 7.125000 0.000000 0.000000 40.245300 -15.202000 40.368300 
1.313480 16.272661 -1.047249 -3.251216 8.729127 9.606230 6.438474 1.117689 0.497761 -17.057877 -12.676992 -39.054289 8.238061 19.170269 57.463687 2.312207 -12.882676 -7.533242 0.001200 -0.222500 -0.611400 -6.295648 -1.590534 0.597352 18.448187 2.213910 -35.586717 -8.217261 -17.403365 54.773546 -1.011500 -0.034477 -16.482871 -1.487200 7.704600 -21.820300 -4.842778 2.724724 26.566777 -2.468283 1.294634 0.090578 -2.168516 1.270342 -19.393142 -12.538731 -1.169369 -13.238929 17.021160 0.851498 -0.502200 8.674200 1.043700 2.263600 -7.241452 -1.999752 2.769602 -27.413615 29.177633 64.870428 145.030451 -42.526333 -107.016050 -3.838757 -2.540477 -83.644956 -32.833756 39.619824 -19.036000 -7.125000 0.000000 0.000000 -66.264100 55.132700 -23.923500 6.601384 3.501524 2.339863 47.908019 -48.223121 51.894995 -149.127008 37.231342 -108.998384 1.752015 2.003758 -42.550514 42.886157 8.853298 7.420200 7.125000 0.000000 0.000000 40.386500 -15.297200 40.539000 
1.318038 16.270771 -1.046249 -3.277166 8.773966 9.702983 6.441319 1.107455 0.498341 -16.992564 -12.722191 -39.205567 8.262371 19.197881 57.538187 2.318596 -12.957421 -7.546695 0.001000 -0.200600 -0.551200 -6.303693 -1.596146 0.602435 18.489178 2.142561 -35.733683 -8.221236 -17.411247 54.791370 -1.003210 -0.064677 -16.452003 -1.512000 7.765600 -22.004400 -4.939364 2.731906 26.802066 -2.378606 1.236805 -0.164155 -2.023171 1.271004 -19.876105 -12.088723 -1.202011 -14.601481 16.594290 0.605804 1.101339 8.474100 0.966300 3.050200 -7.240124 -2.034208 2.759230 -27.864519 29.361000 64.938250 144.901611 -42.630755 -106.915175 -3.832110 -2.547051 -83.897328 -32.823996 39.701527 -19.066400 -7.125000 0.000000 0.000000 -66.352500 55.173800 -24.056900 6.607074 3.485021 2.321438 47.976894 -48.092561 52.044905 -149.051793 37.297792 -108.943257 1.756894 2.003888 -42.869711 43.104690 8.637953 7.312300 7.125000 0.000000 0.000000 40.490000 -15.365700 40.666700 
1.323596 16.268436 -1.044581 -3.368629 8.826420 9.803542 6.445554 1.098352 0.498457 -16.864431 -12.773812 -39.373061 8.286811 19.228124 57.612988 2.321133 -12.951056 -7.593651 0.001600 -0.254800 -0.700000 -6.311417 -1.598409 0.607902 18.594079 2.088321 -35.872757 -8.218638 -17.415088 54.786467 -1.005376 -0.038956 -16.429950 -1.504000 7.745800 -21.944600 -4.911650 2.712315 27.020707 -2.295944 1.192358 -0.412711 -1.956492 1.263727 -20.351413 -11.653563 -1.324148 -15.682526 16.100994 0.251260 2.414157 8.240500 0.817900 3.716200 -7.239384 -2.062077 2.751456 -28.252754 29.542736 64.961919 144.852510 -42.675140 -106.872959 -3.826746 -2.558108 -84.160157 -32.783449 39.752355 -19.058500 -7.125000 0.000000 0.000000 -66.376500 55.204400 -24.128700 6.611982 3.469574 2.303143 48.083019 -48.024681 52.219263 -148.940542 37.394156 -108.863751 1.754631 2.013353 -43.098057 43.276758 8.645936 7.366300 7.125000 0.000000 0.000000 40.525500 -15.262300 40.888000 
1.331266 16.266547 -1.040468 -3.460551 8.867205 9.931839 6.451650 1.090061 0.499342 -16.743973 -12.827852 -39.558386 8.308973 19.258812 57.683566 2.320596 -12.956905 -7.597937 0.001800 -0.276200 -0.758900 -6.317393 -1.599431 0.612581 18.696663 2.014077 -36.039214 -8.213625 -17.418380 54.775564 -1.008129 -0.048337 -16.478868 -1.537500 7.827900 -22.192500 -4.850076 2.664397 27.154380 -2.243518 1.127803 -0.658018 -1.933467 1.241668 -20.786537 -11.172254 -1.434101 -16.521206 15.572393 -0.070791 3.433904 7.973900 0.673700 4.240100 -7.231644 -2.082587 2.744057 -28.584209 29.742102 65.021741 144.725734 -42.776311 -106.775223 -3.804943 -2.577528 -84.258312 -32.834065 39.521613 -18.998900 -7.125000 0.000000 0.000000 -66.149300 55.076300 -23.744800 6.615087 3.460530 2.288566 48.194293 -47.963461 52.438730 -148.857519 37.468500 -108.802804 1.753081 2.021316 -43.310253 43.428145 8.633668 7.398600 7.125000 0.000000 0.000000 40.561100 -15.187400 41.070100 
1.340826 16.265546 -1.034355 -3.563823 8.935611 10.003511 6.454671 1.084491 0.503218 -16.622732 -12.916880 -39.656272 8.329443 19.282153 57.741948 2.328443 -12.995446 -7.653886 0.002400 -0.315400 -0.866600 -6.321336 -1.601289 0.614430 18.808685 1.908712 -36.128660 -8.209755 -17.415574 54.762400 -1.012575 -0.017560 -16.471638 -1.523800 7.794400 -22.091500 -4.768428 2.611664 27.266946 -2.176292 1.073802 -0.850424 -1.900601 1.220133 -21.133087 -10.736305 -1.521977 -17.474961 15.112437 -0.335492 4.387719 7.742500 0.565200 4.753600 -7.221073 -2.107699 2.735932 -28.891339 29.849566 65.092094 144.509671 -42.940284 -106.612485 -3.790995 -2.588077 -84.296942 -32.990621 39.406144 -19.064200 -7.125000 0.000000 0.000000 -66.139900 54.987800 -23.576500 6.618921 3.455832 2.279025 48.232891 -47.879202 52.625238 -148.809146 37.511346 -108.769183 1.754316 2.017689 -43.518644 43.491743 8.458606 7.277400 7.125000 0.000000 0.000000 40.619300 -15.304200 41.034100 
1.348941 16.265213 -1.028018 -3.674943 9.021018 10.049866 6.455603 1.079690 0.506850 -16.499446 -13.000796 -39.722976 8.342984 19.298889 57.780813 2.330248 -12.996016 -7.677381 0.002800 -0.340500 -0.935600 -6.325846 -1.603069 0.616691 18.927728 1.837214 -36.178323 -8.202944 -17.410426 54.739650 -1.010705 0.002329 -16.416553 -1.490900 7.713700 -21.847800 -4.677019 2.571195 27.429248 -2.081275 1.041038 -1.043650 -1.843969 1.208113 -21.511783 -10.544729 -1.646695 -18.351613 14.823621 -0.595491 5.216117 7.614300 0.458600 5.216500 -7.217098 -2.128272 2.728185 -29.201148 29.958679 65.120366 144.401606 -43.026700 -106.527545 -3.794990 -2.578289 -84.350498 -33.032508 39.560071 -19.163800 -7.125000 0.000000 0.000000 -66.355100 55.057800 -23.846200 6.621683 3.446906 2.269485 48.195083 -47.873889 52.838844 -148.758298 37.554998 -108.731899 1.756141 2.020407 -43.565083 43.608898 8.464887 7.314900 7.125000 0.000000 0.000000 40.642400 -15.230900 41.188100 
